<svg width="20" height="20" viewBox="0 0 20 20" fill="none" xmlns="http://www.w3.org/2000/svg">
<path fill-rule="evenodd" clip-rule="evenodd" d="M16.1899 3.3302C17.8799 3.3302 19.2399 4.7002 19.2399 6.3902V9.8302C16.7799 11.2702 13.5299 12.1402 9.98989 12.1402C6.44989 12.1402 3.20989 11.2702 0.749893 9.8302V6.3802C0.749893 4.6902 2.11989 3.3302 3.80989 3.3302H16.1899Z" stroke="#EEEEEE" stroke-width="1.5" stroke-linecap="round" stroke-linejoin="round"/>
<path d="M13.4951 3.32576V2.95976C13.4951 1.73976 12.5051 0.749756 11.2851 0.749756H8.70509C7.48509 0.749756 6.49509 1.73976 6.49509 2.95976V3.32576" stroke="#EEEEEE" stroke-width="1.5" stroke-linecap="round" stroke-linejoin="round"/>
<path d="M0.774399 13.4829L0.963399 15.9919C1.0914 17.6829 2.5004 18.9899 4.1954 18.9899H15.7944C17.4894 18.9899 18.8984 17.6829 19.0264 15.9919L19.2154 13.4829" stroke="#EEEEEE" stroke-width="1.5" stroke-linecap="round" stroke-linejoin="round"/>
</svg>
